<svg width="192" height="192" viewBox="0 0 192 192" fill="none" xmlns="http://www.w3.org/2000/svg">
<path d="M104 16V52C104 63.0457 112.954 72 124 72H160V160C160 168.837 152.837 176 144 176H48C39.1634 176 32 168.837 32 160V32C32 23.1634 39.1634 16 48 16H104ZM60 144C57.7909 144 56 145.791 56 148C56 150.209 57.7909 152 60 152H108C110.209 152 112 150.209 112 148C112 145.791 110.209 144 108 144H60ZM60 120C57.7909 120 56 121.791 56 124C56 126.209 57.7909 128 60 128H132C134.209 128 136 126.209 136 124C136 121.791 134.209 120 132 120H60ZM113.373 16C117.616 16.0001 121.686 17.6861 124.687 20.6865L155.313 51.3135C158.314 54.3139 160 58.3837 160 62.627V64H124C117.373 64 112 58.6274 112 52V16H113.373Z" fill="#06B6D4"/>
</svg>
