<svg width="64" height="108" viewBox="0 0 109 108" fill="none" xmlns="http://www.w3.org/2000/svg">
    <path d="M99 62L99 27C99 25.3431 97.6569 24 96 24L61 24L61 59C61 60.6569 62.3431 62 64 62L99 62Z" fill="white"/>
    <path d="M9 27C9 25.3431 10.3431 24 12 24H96C97.6569 24 99 25.3431 99 27V66L81 84H12C10.3431 84 9 82.6569 9 81V27Z" fill="#0443F2"/>
    <g filter="url(#filter0_d_34_43)">
        <path d="M81 84L99 66L84 66C82.3431 66 81 67.3431 81 69L81 84Z" fill="white"/>
    </g>
    <line x1="1.5" y1="-1.5" x2="30.5" y2="-1.5" transform="matrix(1 0 0 -1 21 54)" stroke="white" stroke-width="3" stroke-linecap="round"/>
    <line x1="1.5" y1="-1.5" x2="34.5" y2="-1.5" transform="matrix(1 0 0 -1 21 45)" stroke="white" stroke-width="3" stroke-linecap="round"/>
    <line x1="1.5" y1="-1.5" x2="26.5" y2="-1.5" transform="matrix(1 1.74846e-07 1.74846e-07 -1 21 36)" stroke="white" stroke-width="3" stroke-linecap="round"/>
    <defs>
        <filter id="filter0_d_34_43" x="71" y="56" width="38" height="38" filterUnits="userSpaceOnUse" color-interpolation-filters="sRGB">
            <feFlood flood-opacity="0" result="BackgroundImageFix"/>
            <feColorMatrix in="SourceAlpha" type="matrix" values="0 0 0 0 0 0 0 0 0 0 0 0 0 0 0 0 0 0 127 0" result="hardAlpha"/>
            <feOffset/>
            <feGaussianBlur stdDeviation="5"/>
            <feComposite in2="hardAlpha" operator="out"/>
            <feColorMatrix type="matrix" values="0 0 0 0 0 0 0 0 0 0 0 0 0 0 0 0 0 0 0.4 0"/>
            <feBlend mode="normal" in2="BackgroundImageFix" result="effect1_dropShadow_34_43"/>
            <feBlend mode="normal" in="SourceGraphic" in2="effect1_dropShadow_34_43" result="shape"/>
        </filter>
    </defs>
</svg>
